<?xml version="1.0" encoding="UTF-8" standalone="no"?>
<!DOCTYPE svg PUBLIC "-//W3C//DTD SVG 1.1//EN" "http://www.w3.org/Graphics/SVG/1.1/DTD/svg11.dtd">
<svg width="100%" height="100%" viewBox="0 0 192 192" version="1.1" xmlns="http://www.w3.org/2000/svg" xmlns:xlink="http://www.w3.org/1999/xlink" xml:space="preserve" xmlns:serif="http://www.serif.com/" style="fill-rule:evenodd;clip-rule:evenodd;stroke-linecap:round;stroke-linejoin:round;stroke-miterlimit:1.5;">
    <g transform="matrix(1,0,0,1,-1,-1)">
        <g transform="matrix(0.2425,0,0,0.323333,0,0)">
            <g transform="matrix(4.12371,0,0,3.09278,-1249.48,-627.835)">
                <g id="Layer1">
                    <g>
                        <g>
                            <g transform="matrix(0.797414,0,0,0.797414,84.2241,64.7629)">
                                <path d="M512,237C512,204.989 486.011,179 454,179L338,179C305.989,179 280,204.989 280,237L280,353C280,385.011 305.989,411 338,411L454,411C486.011,411 512,385.011 512,353L512,237Z" style="fill:none;stroke:rgb(0,112,149);stroke-width:8.78px;"/>
                            </g>
                            <g transform="matrix(5.79714e-17,0.946745,-1.125,6.88864e-17,742.7,-291.812)">
                                <g transform="matrix(1.95091,0,2.22045e-16,1,-540.453,101.206)">
                                    <rect x="559" y="229" width="77" height="14" style="fill:none;stroke:rgb(36,112,149);stroke-width:3.27px;"/>
                                </g>
                                <g transform="matrix(1,0,0,1,7,-29.794)">
                                    <rect x="556" y="367" width="5" height="9" style="fill:rgb(36,112,149);"/>
                                </g>
                                <g transform="matrix(1,0,0,1,19,-29.794)">
                                    <rect x="556" y="367" width="5" height="9" style="fill:rgb(36,112,149);"/>
                                </g>
                                <g transform="matrix(1,0,0,1,31,-29.794)">
                                    <rect x="556" y="367" width="5" height="9" style="fill:rgb(36,112,149);"/>
                                </g>
                                <g transform="matrix(1,0,0,1,43,-29.794)">
                                    <rect x="556" y="367" width="5" height="9" style="fill:rgb(36,112,149);"/>
                                </g>
                                <g transform="matrix(1,0,0,1,55,-29.794)">
                                    <rect x="556" y="367" width="5" height="9" style="fill:rgb(36,112,149);"/>
                                </g>
                                <g transform="matrix(1,0,0,1,67,-29.794)">
                                    <rect x="556" y="367" width="5" height="9" style="fill:rgb(36,112,149);"/>
                                </g>
                                <g transform="matrix(1,0,0,1,79,-29.794)">
                                    <rect x="556" y="367" width="5" height="9" style="fill:rgb(36,112,149);"/>
                                </g>
                                <g transform="matrix(1,0,0,1,91,-29.794)">
                                    <rect x="556" y="367" width="5" height="9" style="fill:rgb(36,112,149);"/>
                                </g>
                                <g transform="matrix(1,0,0,1,103,-29.794)">
                                    <rect x="556" y="367" width="5" height="9" style="fill:rgb(36,112,149);"/>
                                </g>
                                <g transform="matrix(1,0,0,1,115,-29.794)">
                                    <rect x="556" y="367" width="5" height="9" style="fill:rgb(36,112,149);"/>
                                </g>
                                <g transform="matrix(1,0,0,1,127,-29.794)">
                                    <rect x="556" y="367" width="5" height="9" style="fill:rgb(36,112,149);"/>
                                </g>
                            </g>
                            <g transform="matrix(0.872517,0,0,0.872517,-185.244,-12.7297)">
                                <path d="M657,290.049L657,277.049C701.981,277.049 738.5,313.568 738.5,358.549C738.5,403.53 701.981,440.049 657,440.049L657,427.049C694.806,427.049 725.5,396.355 725.5,358.549C725.5,320.742 694.806,290.049 657,290.049Z" style="fill:rgb(185,200,207);"/>
                            </g>
                            <g transform="matrix(0.714286,0,0,1,109.714,-6.53699e-13)">
                                <rect x="377" y="229" width="7" height="142.22" style="fill:rgb(185,200,207);"/>
                            </g>
                            <g transform="matrix(1,0,0,1,-150,-6.88984)">
                                <circle cx="545" cy="307" r="7" style="fill:none;stroke:rgb(185,200,207);stroke-width:3px;"/>
                            </g>
                        </g>
                        <g transform="matrix(1,0,0,1,5,0.610157)">
                            <rect x="427" y="297" width="12" height="5" style="fill:rgb(185,200,207);"/>
                        </g>
                        <g transform="matrix(0.707107,-0.707107,0.707107,0.707107,-93.4006,356.509)">
                            <rect x="427" y="297" width="12" height="5" style="fill:rgb(185,200,207);"/>
                        </g>
                        <g transform="matrix(-0.707107,-0.707107,-0.707107,0.707107,942.511,432.509)">
                            <rect x="427" y="297" width="12" height="5" style="fill:rgb(185,200,207);"/>
                        </g>
                        <g transform="matrix(6.12323e-17,1,-1,6.12323e-17,690,-184.89)">
                            <rect x="427" y="297" width="12" height="5" style="fill:rgb(185,200,207);"/>
                        </g>
                        <g transform="matrix(6.12323e-17,1,-1,6.12323e-17,690,-80.8898)">
                            <rect x="427" y="297" width="12" height="5" style="fill:rgb(185,200,207);"/>
                        </g>
                    </g>
                </g>
            </g>
        </g>
    </g>
</svg>
