<?xml version="1.0" encoding="UTF-8" standalone="no"?>
<!DOCTYPE svg PUBLIC "-//W3C//DTD SVG 1.1//EN" "http://www.w3.org/Graphics/SVG/1.1/DTD/svg11.dtd">
<svg width="100%" height="100%" viewBox="0 0 192 192" version="1.1" xmlns="http://www.w3.org/2000/svg" xmlns:xlink="http://www.w3.org/1999/xlink" xml:space="preserve" xmlns:serif="http://www.serif.com/" style="fill-rule:evenodd;clip-rule:evenodd;stroke-linecap:round;stroke-linejoin:round;stroke-miterlimit:1.5;">
    <g transform="matrix(1,0,0,1,-1,-1)">
        <g transform="matrix(0.2425,0,0,0.323333,0,0)">
            <g transform="matrix(4.12371,0,0,3.09278,-181.443,-627.835)">
                <g id="Layer3">
                    <g>
                        <g transform="matrix(0.797414,0,0,0.797414,-174.776,64.7629)">
                            <path d="M512,237C512,204.989 486.011,179 454,179L338,179C305.989,179 280,204.989 280,237L280,353C280,385.011 305.989,411 338,411L454,411C486.011,411 512,385.011 512,353L512,237Z" style="fill:none;stroke:rgb(0,112,149);stroke-width:8.78px;"/>
                        </g>
                        <g transform="matrix(1,0,0,1,-270.628,31.2824)">
                            <text x="334.712px" y="286.05px" style="font-family:'NotoSansJP-Bold', 'Noto Sans JP', sans-serif;font-weight:700;font-size:56px;fill:rgb(36,112,149);">U<tspan x="375.928px " y="286.05px ">X</tspan></text>
                            <text x="423.752px" y="286.05px" style="font-family:'NotoSansJP-Medium', 'Noto Sans JP', sans-serif;font-weight:500;font-size:56px;fill:rgb(185,200,207);">UI</text>
                        </g>
                        <g transform="matrix(1,0,0,0.830312,-256,46.2216)">
                            <rect x="403" y="270" width="2" height="64" style="fill:rgb(100,121,130);"/>
                        </g>
                    </g>
                </g>
            </g>
        </g>
    </g>
</svg>
